<svg xmlns="http://www.w3.org/2000/svg" width="40" height="40" viewBox="0 0 40 40" role="img"><title>Memory and agent control</title><rect x="1" y="1" width="38" height="38" rx="11" fill="#f0edff" stroke="#d5cef7"/><g transform="translate(4 4)" fill="none" stroke="#554390" stroke-width="1.8" stroke-linecap="round" stroke-linejoin="round"><path d="M16 8c-2-7-10-4-9 2-6 1-5 9-1 10-1 7 8 10 10 4 2 6 11 3 10-4 4-1 5-9-1-10 1-6-7-9-9-2v16M7 10l4 3m-5 7 5-2m14-8-4 3m5 7-5-2"/></g><circle cx="33" cy="7" r="3" fill="#20b5ae"/></svg>
